<svg width="24" height="24" viewBox="0 0 24 24" fill="none" xmlns="http://www.w3.org/2000/svg">
<path d="M15.375 3.98438L18 3L18.9844 0.375C19.0781 0.125 19.25 0 19.5 0C19.75 0 19.9219 0.125 20.0156 0.375L21 3L23.6719 3.98438C23.8906 4.07812 24 4.25 24 4.5C24 4.75 23.8906 4.92188 23.6719 5.01562L21 6L20.0156 8.67188C19.9219 8.89062 19.75 9 19.5 9C19.25 9 19.0781 8.89062 18.9844 8.67188L18 6L15.375 5.01562C15.125 4.92188 15 4.75 15 4.5C15 4.25 15.125 4.07812 15.375 3.98438ZM0.421875 11.25L1.21875 10.875L1.64062 10.6875L5.76562 8.76562L7.6875 4.64062L7.73438 4.59375L7.875 4.21875L8.25 3.42188C8.40625 3.14062 8.64062 3 8.95312 3C9.26562 3 9.48438 3.14062 9.60938 3.42188L9.98438 4.21875L10.1719 4.64062L12.0938 8.76562L16.2188 10.6875L16.2656 10.7344L16.6406 10.875L17.4375 11.25C17.7188 11.4062 17.8594 11.6406 17.8594 11.9531C17.8594 12.2656 17.7188 12.4844 17.4375 12.6094L16.6406 12.9844L16.2656 13.1719H16.2188L12.0938 15.0938L10.1719 19.2188V19.2656L9.98438 19.6406L9.60938 20.4375C9.45312 20.7188 9.23438 20.8594 8.95312 20.8594C8.64062 20.8594 8.40625 20.7188 8.25 20.4375L7.875 19.6406L7.6875 19.2656V19.2188L5.76562 15.0938L1.64062 13.1719H1.59375L1.21875 12.9844L0.421875 12.6094C0.140625 12.4844 0 12.2656 0 11.9531C0 11.6406 0.140625 11.4062 0.421875 11.25ZM4.3125 11.9531L6.75 13.0312C7.21875 13.2812 7.57812 13.6562 7.82812 14.1562L8.95312 16.5469L10.0312 14.1562C10.2812 13.6562 10.6562 13.2812 11.1562 13.0312L13.5469 11.9531L11.1562 10.8281C10.6562 10.5781 10.2812 10.2031 10.0312 9.70312L8.95312 7.3125L7.82812 9.70312C7.57812 10.2031 7.21875 10.5781 6.75 10.8281L4.3125 11.9531L6.75 10.8281L4.3125 11.9531ZM18 18L18.9844 15.375C19.0781 15.125 19.25 15 19.5 15C19.75 15 19.9219 15.125 20.0156 15.375L21 18L23.6719 18.9844C23.8906 19.0781 24 19.25 24 19.5C24 19.75 23.8906 19.9219 23.6719 20.0156L21 21L20.0156 23.6719C19.9219 23.8906 19.75 24 19.5 24C19.25 24 19.0781 23.8906 18.9844 23.6719L18 21L15.375 20.0156C15.125 19.9219 15 19.75 15 19.5C15 19.25 15.125 19.0781 15.375 18.9844L18 18L15.375 18.9844L18 18Z" fill="#1677FF"/>
</svg>
