<svg width="24" height="24" viewBox="0 0 24 24" fill="none" xmlns="http://www.w3.org/2000/svg">
<path fill-rule="evenodd" clip-rule="evenodd" d="M0 3.75C0 1.67893 1.67893 0 3.75 0H8C8.55228 0 9 0.447715 9 1C9 1.55228 8.55228 2 8 2H3.75C2.7835 2 2 2.7835 2 3.75V7C2 7.55228 1.55228 8 1 8C0.447715 8 0 7.55228 0 7V3.75ZM15 1C15 0.447715 15.4477 0 16 0H20.25C22.3211 0 24 1.67893 24 3.75V7C24 7.55228 23.5523 8 23 8C22.4477 8 22 7.55228 22 7V3.75C22 2.7835 21.2165 2 20.25 2H16C15.4477 2 15 1.55228 15 1ZM0 12C0 11.4477 0.447715 11 1 11H23C23.5523 11 24 11.4477 24 12C24 12.5523 23.5523 13 23 13H1C0.447715 13 0 12.5523 0 12ZM1 16C1.55228 16 2 16.4477 2 17V20.25C2 21.2165 2.7835 22 3.75 22H8C8.55228 22 9 22.4477 9 23C9 23.5523 8.55228 24 8 24H3.75C1.67893 24 0 22.3211 0 20.25L0 17C0 16.4477 0.447715 16 1 16ZM23 16C23.5523 16 24 16.4477 24 17V20.25C24 22.3211 22.3211 24 20.25 24H16C15.4477 24 15 23.5523 15 23C15 22.4477 15.4477 22 16 22H20.25C21.2165 22 22 21.2165 22 20.25V17C22 16.4477 22.4477 16 23 16Z" fill="#1677FF"/>
</svg>
