<svg width="18" height="24" viewBox="0 0 18 24" fill="none" xmlns="http://www.w3.org/2000/svg">
<path d="M3 21.75H15C15.4688 21.7188 15.7188 21.4688 15.75 21V7.5H12C11.5625 7.5 11.2031 7.35938 10.9219 7.07812C10.6406 6.79688 10.5 6.4375 10.5 6V2.25H3C2.53125 2.28125 2.28125 2.53125 2.25 3V21C2.28125 21.4688 2.53125 21.7188 3 21.75ZM3 0H10.7812C11.5938 0 12.2969 0.296875 12.8906 0.890625L17.1094 5.10938C17.7031 5.70313 18 6.42188 18 7.26562V21C17.9688 21.8438 17.6719 22.5469 17.1094 23.1094C16.5469 23.6719 15.8438 23.9688 15 24H3C2.15625 23.9688 1.45312 23.6719 0.890625 23.1094C0.328125 22.5469 0.03125 21.8438 0 21V3C0.03125 2.15625 0.328125 1.45312 0.890625 0.890625C1.45312 0.328125 2.15625 0.03125 3 0ZM5.625 12H12.375C13.0625 12.0625 13.4375 12.4375 13.5 13.125C13.4375 13.8125 13.0625 14.1875 12.375 14.25H5.625C4.9375 14.1875 4.5625 13.8125 4.5 13.125C4.5625 12.4375 4.9375 12.0625 5.625 12ZM5.625 16.5H12.375C13.0625 16.5625 13.4375 16.9375 13.5 17.625C13.4375 18.3125 13.0625 18.6875 12.375 18.75H5.625C4.9375 18.6875 4.5625 18.3125 4.5 17.625C4.5625 16.9375 4.9375 16.5625 5.625 16.5Z" fill="#1677FF"/>
</svg>
