<svg width="28" height="24" viewBox="0 0 28 24" fill="none" xmlns="http://www.w3.org/2000/svg">
<path d="M3.5 21.75H13.8594H3.5H13.8594C14.4219 22.625 15.125 23.3594 15.9688 23.9531C15.8125 23.9844 15.6562 24 15.5 24H3.5C2.65625 23.9688 1.95312 23.6719 1.39062 23.1094C0.828125 22.5469 0.53125 21.8438 0.5 21V3C0.53125 2.15625 0.828125 1.45312 1.39062 0.890625C1.95312 0.328125 2.65625 0.03125 3.5 0H11.2812C12.0938 0 12.7969 0.296875 13.3906 0.890625L17.6094 5.10938C18.2031 5.70313 18.5 6.42188 18.5 7.26562V9.32812C17.6875 9.54688 16.9375 9.875 16.25 10.3125V7.5H12.5C12.0625 7.5 11.7031 7.35938 11.4219 7.07812C11.1406 6.79688 11 6.4375 11 6V2.25H3.5C3.03125 2.28125 2.78125 2.53125 2.75 3V21C2.78125 21.4688 3.03125 21.7188 3.5 21.75ZM20.75 10.5C21.9688 10.5 23.0938 10.7969 24.125 11.3906C25.1562 11.9844 25.9844 12.8125 26.6094 13.875C27.2031 14.9375 27.5 16.0625 27.5 17.25C27.5 18.4375 27.2031 19.5625 26.6094 20.625C25.9844 21.6875 25.1562 22.5156 24.125 23.1094C23.0938 23.7031 21.9688 24 20.75 24C19.5312 24 18.4062 23.7031 17.375 23.1094C16.3438 22.5156 15.5156 21.6875 14.8906 20.625C14.2969 19.5625 14 18.4375 14 17.25C14 16.0625 14.2969 14.9375 14.8906 13.875C15.5156 12.8125 16.3438 11.9844 17.375 11.3906C18.4062 10.7969 19.5312 10.5 20.75 10.5ZM21.5 14.25C21.4688 13.7812 21.2188 13.5312 20.75 13.5C20.2812 13.5312 20.0312 13.7812 20 14.25V16.5H17.75C17.2812 16.5312 17.0312 16.7812 17 17.25C17.0312 17.7188 17.2812 17.9688 17.75 18H20V20.25C20.0312 20.7188 20.2812 20.9688 20.75 21C21.2188 20.9688 21.4688 20.7188 21.5 20.25V18H23.75C24.2188 17.9688 24.4688 17.7188 24.5 17.25C24.4688 16.7812 24.2188 16.5312 23.75 16.5H21.5V14.25Z" fill="#1677FF"/>
</svg>
