<svg width="30" height="18" viewBox="0 0 30 18" fill="none" xmlns="http://www.w3.org/2000/svg">
<path d="M3 0H15H27C27.8438 0.03125 28.5469 0.328125 29.1094 0.890625C29.6719 1.45312 29.9688 2.15625 30 3V15C29.9688 15.8438 29.6719 16.5469 29.1094 17.1094C28.5469 17.6719 27.8438 17.9688 27 18H12.75H3C2.15625 17.9688 1.45312 17.6719 0.890625 17.1094C0.328125 16.5469 0.03125 15.8438 0 15V3C0.03125 2.15625 0.328125 1.45312 0.890625 0.890625C1.45312 0.328125 2.15625 0.03125 3 0ZM27 2.25H15V15.75H27C27.4688 15.7188 27.7188 15.4688 27.75 15V3C27.7188 2.53125 27.4688 2.28125 27 2.25ZM8.34375 5.25C8.1875 4.90625 7.90625 4.71875 7.5 4.6875C7.09375 4.71875 6.8125 4.90625 6.65625 5.25L3.65625 12C3.46875 12.5312 3.625 12.9375 4.125 13.2188C4.65625 13.4062 5.0625 13.25 5.34375 12.75L5.76562 11.8125H9.23438L9.65625 12.75C9.9375 13.25 10.3438 13.4062 10.875 13.2188C11.375 12.9375 11.5312 12.5312 11.3438 12L8.34375 5.25L11.3438 12L8.34375 5.25ZM8.39062 9.9375H6.60938L7.5 7.92188L8.39062 9.9375L7.5 7.92188L8.39062 9.9375ZM21.375 4.6875C21.9375 4.75 22.25 5.0625 22.3125 5.625V5.8125H24.375H25.125C25.6875 5.875 26 6.1875 26.0625 6.75C26 7.3125 25.6875 7.625 25.125 7.6875H25.0312L24.9375 7.92188C24.5312 9.04688 23.9219 10.0625 23.1094 10.9688C23.1094 10.9688 23.125 10.9844 23.1562 11.0156C23.1875 11.0156 23.2031 11.0312 23.2031 11.0625L24.0938 11.5781C24.5625 11.9219 24.6719 12.3438 24.4219 12.8438C24.0781 13.3125 23.6562 13.4219 23.1562 13.1719L22.2656 12.6562C22.0469 12.5312 21.8438 12.3906 21.6562 12.2344C21.1562 12.6094 20.625 12.9219 20.0625 13.1719L19.875 13.2188C19.3438 13.4062 18.9375 13.25 18.6562 12.75C18.4688 12.2188 18.625 11.8125 19.125 11.5312L19.3125 11.4375C19.5938 11.3125 19.875 11.1562 20.1562 10.9688L19.5938 10.4062C19.2188 9.96875 19.2188 9.53125 19.5938 9.09375C20.0312 8.71875 20.4688 8.71875 20.9062 9.09375L21.6094 9.79688C22.2031 9.17188 22.6719 8.46875 23.0156 7.6875H21.375H18C17.4375 7.625 17.125 7.3125 17.0625 6.75C17.125 6.1875 17.4375 5.875 18 5.8125H20.4375V5.625C20.5 5.0625 20.8125 4.75 21.375 4.6875Z" fill="#1677FF"/>
</svg>
