<svg width="22" height="21" viewBox="0 0 22 21" fill="none" xmlns="http://www.w3.org/2000/svg">
<path d="M12.1328 1.20312L14.6328 6.35938L20.2578 7.21875C20.7526 7.29688 21.0911 7.57031 21.2734 8.03906C21.4036 8.53385 21.2995 8.96354 20.9609 9.32812L16.8984 13.3516L17.8359 19.0547C17.9141 19.5495 17.7448 19.9531 17.3281 20.2656C16.9115 20.5521 16.4818 20.5781 16.0391 20.3438L11 17.6875L6 20.3438C5.53125 20.5781 5.08854 20.5521 4.67188 20.2656C4.28125 19.9531 4.11198 19.5495 4.16406 19.0547L5.14062 13.3516L1.07812 9.32812C0.713542 8.96354 0.609375 8.53385 0.765625 8.03906C0.921875 7.57031 1.2474 7.29688 1.74219 7.21875L7.36719 6.35938L9.86719 1.20312C10.1276 0.760417 10.5052 0.526042 11 0.5C11.5208 0.526042 11.8984 0.760417 12.1328 1.20312Z" fill="#EAB308"/>
</svg>
